<svg xmlns="http://www.w3.org/2000/svg" version="1.1" xmlns:xlink="http://www.w3.org/1999/xlink" viewBox="0 0 200 200"><rect width="200" height="200" fill="url('#gradient')"></rect><defs><linearGradient id="gradient" gradientTransform="rotate(160 0.5 0.5)"><stop offset="0%" stop-color="#dbd4c9"></stop><stop offset="100%" stop-color="#b95232"></stop></linearGradient></defs><g><g fill="#283855" transform="matrix(1.303568992952944,0,0,1.303568992952944,14.600501518142195,109.65515487425489)" stroke="#739bab" stroke-width="0.3"><path d="M10.03-8.30L10.03-5.66L4.50-5.66L4.50 0L1.07 0L1.07-14.22L10.59-14.22L10.59-11.57L4.50-11.57L4.50-8.30L10.03-8.30ZM15.33-10.57L15.33 0L12.03 0L12.03-10.57L15.33-10.57ZM11.84-13.29L11.84-13.29Q11.84-13.99 12.34-14.44Q12.85-14.89 13.66-14.89Q14.47-14.89 14.98-14.44Q15.49-13.99 15.49-13.29Q15.49-12.59 14.98-12.14Q14.47-11.69 13.66-11.69Q12.85-11.69 12.34-12.14Q11.84-12.59 11.84-13.29ZM17.90-13.19L21.19-13.19L21.19-10.57L22.93-10.57L22.93-8.28L21.19-8.28L21.19-3.45Q21.19-2.85 21.41-2.62Q21.62-2.38 22.26-2.38L22.26-2.38Q22.74-2.38 23.08-2.44L23.08-2.44L23.08-0.09Q22.19 0.20 21.22 0.20L21.22 0.20Q19.52 0.20 18.71-0.61Q17.90-1.41 17.90-3.04L17.90-3.04L17.90-8.28L16.55-8.28L16.55-10.57L17.90-10.57L17.90-13.19ZM24.16-10.57L27.25-10.57L27.35-9.33Q28.45-10.76 30.37-10.76L30.37-10.76Q32.02-10.76 32.84-9.78Q33.65-8.79 33.68-6.81L33.68-6.81L33.68 0L30.38 0L30.38-6.67Q30.38-7.47 30.06-7.85Q29.74-8.22 28.89-8.22L28.89-8.22Q27.92-8.22 27.45-7.46L27.45-7.46L27.45 0L24.16 0L24.16-10.57ZM40.62 0.20L40.62 0.20Q38.18 0.20 36.68-1.25Q35.18-2.71 35.18-5.03L35.18-5.03L35.18-5.30Q35.18-6.92 35.78-8.16Q36.38-9.40 37.53-10.08Q38.68-10.76 40.26-10.76L40.26-10.76Q42.49-10.76 43.78-9.38Q45.07-8.00 45.07-5.53L45.07-5.53L45.07-4.25L38.53-4.25Q38.70-3.36 39.30-2.85Q39.89-2.34 40.84-2.34L40.84-2.34Q42.40-2.34 43.28-3.44L43.28-3.44L44.79-1.66Q44.17-0.81 43.04-0.31Q41.91 0.20 40.62 0.20ZM40.24-8.22L40.24-8.22Q38.80-8.22 38.53-6.31L38.53-6.31L41.85-6.31L41.85-6.56Q41.87-7.35 41.45-7.79Q41.03-8.22 40.24-8.22ZM51.92-2.97L51.92-2.97Q51.92-3.39 51.48-3.64Q51.04-3.90 49.81-4.17Q48.58-4.44 47.78-4.89Q46.98-5.33 46.56-5.97Q46.14-6.60 46.14-7.42L46.14-7.42Q46.14-8.88 47.34-9.82Q48.54-10.76 50.49-10.76L50.49-10.76Q52.58-10.76 53.85-9.81Q55.12-8.87 55.12-7.32L55.12-7.32L51.82-7.32Q51.82-8.59 50.48-8.59L50.48-8.59Q49.96-8.59 49.61-8.31Q49.26-8.02 49.26-7.59L49.26-7.59Q49.26-7.15 49.69-6.88Q50.12-6.60 51.06-6.43Q52.00-6.25 52.71-6.01L52.71-6.01Q55.10-5.19 55.10-3.07L55.10-3.07Q55.10-1.62 53.81-0.71Q52.53 0.20 50.49 0.20L50.49 0.20Q49.13 0.20 48.07-0.29Q47.00-0.78 46.41-1.62Q45.81-2.46 45.81-3.39L45.81-3.39L48.89-3.39Q48.91-2.66 49.38-2.32Q49.84-1.98 50.58-1.98L50.58-1.98Q51.25-1.98 51.59-2.26Q51.92-2.53 51.92-2.97ZM62.17-2.97L62.17-2.97Q62.17-3.39 61.73-3.64Q61.29-3.90 60.06-4.17Q58.83-4.44 58.03-4.89Q57.23-5.33 56.81-5.97Q56.39-6.60 56.39-7.42L56.39-7.42Q56.39-8.88 57.59-9.82Q58.79-10.76 60.73-10.76L60.73-10.76Q62.82-10.76 64.09-9.81Q65.36-8.87 65.36-7.32L65.36-7.32L62.06-7.32Q62.06-8.59 60.72-8.59L60.72-8.59Q60.21-8.59 59.85-8.31Q59.50-8.02 59.50-7.59L59.50-7.59Q59.50-7.15 59.93-6.88Q60.36-6.60 61.30-6.43Q62.25-6.25 62.96-6.01L62.96-6.01Q65.34-5.19 65.34-3.07L65.34-3.07Q65.34-1.62 64.06-0.71Q62.77 0.20 60.73 0.20L60.73 0.20Q59.38 0.20 58.31-0.29Q57.25-0.78 56.65-1.62Q56.05-2.46 56.05-3.39L56.05-3.39L59.13-3.39Q59.15-2.66 59.62-2.32Q60.09-1.98 60.82-1.98L60.82-1.98Q61.49-1.98 61.83-2.26Q62.17-2.53 62.17-2.97ZM67.03-14.22L71.53-14.22L74.71-4.33L77.87-14.22L82.38-14.22L82.38 0L78.95 0L78.95-3.32L79.28-10.12L75.84 0L73.57 0L70.13-10.13L70.46-3.32L70.46 0L67.03 0L67.03-14.22ZM93.65 0L90.36 0Q90.19-0.32 90.05-0.95L90.05-0.95Q89.14 0.20 87.51 0.20L87.51 0.20Q86.02 0.20 84.97-0.71Q83.93-1.61 83.93-2.98L83.93-2.98Q83.93-4.70 85.20-5.58Q86.46-6.46 88.89-6.46L88.89-6.46L89.90-6.46L89.90-7.01Q89.90-8.47 88.64-8.47L88.64-8.47Q87.47-8.47 87.47-7.31L87.47-7.31L84.18-7.31Q84.18-8.85 85.48-9.80Q86.79-10.76 88.81-10.76Q90.83-10.76 92.00-9.78Q93.17-8.79 93.20-7.07L93.20-7.07L93.20-2.39Q93.22-0.94 93.65-0.17L93.65-0.17L93.65 0ZM88.30-2.15L88.30-2.15Q88.92-2.15 89.32-2.41Q89.73-2.68 89.90-3.01L89.90-3.01L89.90-4.70L88.95-4.70Q87.23-4.70 87.23-3.15L87.23-3.15Q87.23-2.71 87.53-2.43Q87.83-2.15 88.30-2.15ZM101.47-10.64L101.42-7.59L100.33-7.67Q98.78-7.67 98.34-6.69L98.34-6.69L98.34 0L95.05 0L95.05-10.57L98.13-10.57L98.24-9.21Q99.07-10.76 100.56-10.76L100.56-10.76Q101.08-10.76 101.47-10.64L101.47-10.64ZM109.15 0L106.85-3.94L105.92-3.01L105.92 0L102.63 0L102.63-15.01L105.92-15.01L105.92-7.04L106.25-7.48L108.73-10.57L112.68-10.57L108.97-6.22L112.92 0L109.15 0ZM118.46 0.20L118.46 0.20Q116.03 0.20 114.52-1.25Q113.02-2.71 113.02-5.03L113.02-5.03L113.02-5.30Q113.02-6.92 113.62-8.16Q114.22-9.40 115.37-10.08Q116.52-10.76 118.11-10.76L118.11-10.76Q120.33-10.76 121.62-9.38Q122.91-8.00 122.91-5.53L122.91-5.53L122.91-4.25L116.37-4.25Q116.54-3.36 117.14-2.85Q117.73-2.34 118.68-2.34L118.68-2.34Q120.24-2.34 121.12-3.44L121.12-3.44L122.63-1.66Q122.01-0.81 120.88-0.31Q119.76 0.20 118.46 0.20ZM118.09-8.22L118.09-8.22Q116.64-8.22 116.37-6.31L116.37-6.31L119.69-6.31L119.69-6.56Q119.71-7.35 119.29-7.79Q118.87-8.22 118.09-8.22ZM124.78-13.19L128.07-13.19L128.07-10.57L129.80-10.57L129.80-8.28L128.07-8.28L128.07-3.45Q128.07-2.85 128.28-2.62Q128.50-2.38 129.13-2.38L129.13-2.38Q129.62-2.38 129.95-2.44L129.95-2.44L129.95-0.09Q129.06 0.20 128.10 0.20L128.10 0.20Q126.40 0.20 125.59-0.61Q124.78-1.41 124.78-3.04L124.78-3.04L124.78-8.28L123.43-8.28L123.43-10.57L124.78-10.57L124.78-13.19Z"></path></g></g></svg>